<svg width="190" height="190" viewBox="0 0 190 190" fill="none" xmlns="http://www.w3.org/2000/svg">
<rect x="34.6667" y="29.3333" width="112" height="136" fill="#FFEDD5"/>
<path d="M57.1667 178.667C49.1111 178.667 42.2361 175.819 36.5417 170.125C30.8472 164.431 28 157.556 28 149.5V41.1667C28 33.1111 30.8472 26.2361 36.5417 20.5417C42.2361 14.8472 49.1111 12 57.1667 12H161.333V137C157.861 137 154.911 138.217 152.483 140.65C150.056 143.083 148.839 146.033 148.833 149.5C148.833 152.972 150.05 155.925 152.483 158.358C154.917 160.792 157.867 162.006 161.333 162V178.667H57.1667ZM61.3333 120.333H78V28.6667H61.3333V120.333ZM57.1667 162H134.875C134.042 160.056 133.383 158.078 132.9 156.067C132.417 154.056 132.172 151.867 132.167 149.5C132.167 147.278 132.375 145.125 132.792 143.042C133.208 140.958 133.903 138.944 134.875 137H57.1667C53.5556 137 50.5694 138.217 48.2083 140.65C45.8472 143.083 44.6667 146.033 44.6667 149.5C44.6667 153.111 45.8472 156.097 48.2083 158.458C50.5694 160.819 53.5556 162 57.1667 162Z" fill="#075985"/>
</svg>
